<svg width="1928" height="804" viewBox="0 0 1928 804" fill="none" xmlns="http://www.w3.org/2000/svg">
<path d="M532.521 598.5C160.521 578.5 155.354 732.667 49.0205 802.5L70.5205 649.5C220.021 460 450.521 442.5 735.021 533.5C1019.52 624.5 1229.02 419.463 1229.02 293C1229.02 190 1179.02 114.667 1130.02 84C1270.02 100 1477.02 313.5 1376.02 598.5C1275.02 883.5 728.926 609.059 532.521 598.5Z" fill="#1F6B84"/>
<path d="M280.021 317C28.0206 369.4 -10.3127 663.5 2.02063 804H48.0206C61.5206 704.333 145.921 502.5 375.521 492.5C662.521 480 977.521 783 1358.52 708.5C1663.32 648.9 1780.52 211.333 1801.02 0H1339.02C1372.52 318.5 1201.02 451.5 1006.02 492.5C811.021 533.5 595.021 251.5 280.021 317Z" fill="#1D90B5"/>
<path d="M1927.02 801.5V487.5C1834.02 154.5 1520.52 137 1485.52 210.5C1450.52 284 1572.02 331.5 1561.52 431C1551.02 530.5 1217.52 487.5 1195.52 624C1177.92 733.2 1308.19 787.833 1375.52 801.5H1927.02Z" fill="#FF9061"/>
<ellipse rx="44.5" ry="41.5" transform="matrix(-1 0 0 1 1540.52 332.5)" fill="#985C42"/>
<path d="M1270 568.345C1217.47 562.801 1337.02 644.957 1403.37 686.728C1444.25 688.268 1530.48 684.014 1548.3 654.678C1532.57 648.803 1512.7 641.557 1490.73 633.776C1452.17 620.117 1407.12 604.811 1366.63 592.392C1416.85 493.131 1508.67 496.393 1548.3 510.432C1519.3 514.915 1465.78 533.637 1483.67 572.667C1501.57 611.697 1534.22 640.075 1548.3 649.386L1569.71 628.902C1555.25 619.566 1527.02 594.382 1529.79 568.345C1532.56 542.307 1578.97 531.894 1601.82 529.942C1667.7 489.708 1657.91 422.613 1633.93 388.46C1649.55 377.505 1687.98 363.759 1716.67 396.417C1745.37 429.075 1716.87 464.97 1699.03 478.835C1704.91 485.669 1716.67 500.26 1716.67 503.956C1740.4 489.23 1787.26 427.44 1742.13 377.199C1706.03 337.007 1648.51 360.452 1624.27 377.199C1621.18 374.311 1618.01 371.97 1614.84 370.27C1587.76 355.717 1546.86 376.333 1529.79 388.46C1515.04 399.143 1482.46 414.1 1470.19 388.46C1454.86 356.41 1459.2 321.473 1464.7 311.367L1424.2 290C1409.83 322.146 1395.96 392.849 1455.44 418.489C1514.92 444.129 1542.13 414.458 1548.3 396.417C1566.58 406.526 1586.14 424.545 1583.6 450.539C1580.13 486.112 1534.13 484.225 1511.56 478.835C1409.96 462.435 1344.06 539.406 1323.81 579.942C1301.61 573.926 1282.78 569.693 1270 568.345Z" fill="#985C42"/>
</svg>
